<?xml version="1.0" standalone="no"?>
<!DOCTYPE svg PUBLIC "-//W3C//DTD SVG 20010904//EN"
 "http://www.w3.org/TR/2001/REC-SVG-20010904/DTD/svg10.dtd">
<svg version="1.0" xmlns="http://www.w3.org/2000/svg"
 width="640.000000pt" height="322.000000pt" viewBox="0 0 640.000000 322.000000"
 preserveAspectRatio="xMidYMid meet">

<g transform="translate(0.000000,322.000000) scale(0.100000,-0.100000)"
fill="#000000" stroke="none">
<path d="M0 1610 l0 -1610 3200 0 3200 0 0 1610 0 1610 -3200 0 -3200 0 0
-1610z m4288 1050 c44 -77 76 -142 72 -145 -4 -3 -141 -7 -304 -10 l-297 -5
-21 36 -21 36 -519 -4 c-568 -3 -524 1 -556 -55 -10 -16 -607 -31 -601 -15 2
6 40 74 84 151 l80 140 305 3 c168 2 618 4 1001 6 l696 2 81 -140z m212 -372
l82 -143 -28 -50 c-54 -98 -410 -717 -686 -1192 l-280 -483 -170 0 -170 0 32
58 c18 31 84 146 147 255 l114 197 39 0 38 0 250 433 c137 237 254 442 261
454 9 17 8 29 -5 57 l-17 34 128 224 c135 235 173 298 179 298 3 0 41 -64 86
-142z m-2429 14 c35 -59 99 -170 142 -247 83 -147 81 -138 53 -205 -3 -9 95
-190 253 -465 l258 -450 40 -3 c44 -3 34 11 259 -385 l73 -127 -171 2 -172 3
-64 110 c-109 186 -894 1559 -904 1581 -8 17 5 46 72 162 45 78 86 140 90 137
5 -3 36 -53 71 -113z"/>
</g>
</svg>
